<svg width="12" height="12" viewBox="0 0 12 12" fill="none" xmlns="http://www.w3.org/2000/svg">
<path d="M7.00113 6.00003L11.3822 1.65528C11.6772 1.36278 11.6772 0.888028 11.3822 0.594778C11.0873 0.301528 10.6086 0.302278 10.3129 0.594778L5.93175 4.93953L1.55064 0.594778C1.25569 0.302278 0.776965 0.302278 0.481261 0.594778C0.185556 0.887278 0.186312 1.36203 0.481261 1.65528L4.86238 6.00003L0.481261 10.3448C0.186312 10.6373 0.186312 11.112 0.481261 11.4053C0.628735 11.5515 0.821585 11.625 1.01595 11.625C1.21031 11.625 1.40316 11.5515 1.55064 11.4053L5.93175 7.06053L10.3129 11.4053C10.4603 11.5515 10.6532 11.625 10.8476 11.625C11.0419 11.625 11.2348 11.5515 11.3822 11.4053C11.6772 11.1128 11.6772 10.638 11.3822 10.3448L7.00113 6.00003Z" fill="#0E76A8"/>
</svg>
