<svg width="88" height="24" viewBox="0 0 88 24" fill="none" xmlns="http://www.w3.org/2000/svg">
<path d="M0.912 24H7.664C14.64 24 19.12 20.032 19.12 12.064C19.12 4.064 14.64 0.287998 7.408 0.287998H0.912V24ZM5.648 20.192V4.096H7.12C11.536 4.096 14.288 6.272 14.288 12.064C14.288 17.824 11.536 20.192 7.12 20.192H5.648ZM23.7558 24H30.5078C37.4838 24 41.9638 20.032 41.9638 12.064C41.9638 4.064 37.4838 0.287998 30.2517 0.287998H23.7558V24ZM28.4918 20.192V4.096H29.9638C34.3798 4.096 37.1318 6.272 37.1318 12.064C37.1318 17.824 34.3798 20.192 29.9638 20.192H28.4918ZM50.3035 24H55.0395V4.256H61.7595V0.287998H43.6475V4.256H50.3035V24ZM65.5995 24H69.8555V14.112C69.8555 11.872 69.4715 8.576 69.2475 6.336H69.3755L71.2635 11.904L74.9435 21.856H77.6635L81.3115 11.904L83.2315 6.336H83.3915C83.1355 8.576 82.7835 11.872 82.7835 14.112V24H87.1035V0.287998H81.8555L77.9195 11.392C77.4075 12.864 76.9915 14.432 76.4795 15.936H76.3195C75.8395 14.432 75.3915 12.864 74.8795 11.392L70.8475 0.287998H65.5995V24Z" fill="#0E76A8"/>
</svg>
