<svg width="20" height="17" viewBox="0 0 20 17" fill="none" xmlns="http://www.w3.org/2000/svg">
<path d="M19.1298 7.93434L1.61382 0.215751C1.32382 0.0889155 0.973815 0.130638 0.740815 0.32089C0.510815 0.509474 0.447816 0.802364 0.590816 1.04519L4.95282 8.48841L0.590816 15.9316C0.447816 16.1753 0.510815 16.4682 0.740815 16.6559C0.885815 16.7728 1.07382 16.8328 1.26382 16.8328C1.38382 16.8328 1.50382 16.8095 1.61382 16.7602L19.1308 9.04165C19.3758 8.93317 19.5308 8.71956 19.5308 8.48758C19.5308 8.25561 19.3758 8.04366 19.1308 7.93518L19.1298 7.93434ZM2.94782 2.22008L15.7518 7.86258H6.25482L2.94782 2.22175V2.22008ZM6.25482 9.11258H15.7528L2.94782 14.7576L6.25482 9.11425V9.11258Z" fill="#0E76A8"/>
</svg>
